<?xml version="1.0" standalone="no"?>
<!DOCTYPE svg PUBLIC "-//W3C//DTD SVG 20010904//EN"
 "http://www.w3.org/TR/2001/REC-SVG-20010904/DTD/svg10.dtd">
<svg version="1.0" xmlns="http://www.w3.org/2000/svg"
 width="96.000000pt" height="96.000000pt" viewBox="0 0 96.000000 96.000000"
 preserveAspectRatio="xMidYMid meet">
<metadata>
Created by potrace 1.14, written by Peter Selinger 2001-2017
</metadata>
<g transform="translate(0.000000,96.000000) scale(0.100000,-0.100000)"
fill="#000000" stroke="none">
<path d="M145 815 l-25 -24 0 -311 0 -311 25 -24 24 -25 311 0 311 0 24 25 25
24 0 311 0 311 -25 24 -24 25 -311 0 -311 0 -24 -25z m649 -21 c24 -23 24
-515 0 -538 -13 -14 -56 -16 -314 -16 -258 0 -301 2 -314 16 -24 23 -24 515 0
538 13 14 56 16 314 16 258 0 301 -2 314 -16z m16 -596 c0 -38 -61 -65 -74
-33 -3 8 -13 15 -21 15 -9 0 -14 -4 -10 -9 3 -5 0 -13 -6 -17 -6 -4 -16 1 -21
10 -11 20 -40 22 -32 1 4 -9 0 -15 -9 -15 -8 0 -17 7 -21 15 -3 8 -13 15 -21
15 -9 0 -14 -4 -10 -9 3 -5 0 -13 -6 -17 -6 -4 -16 1 -21 10 -11 20 -40 22
-32 1 8 -21 -16 -19 -32 3 -13 16 -15 16 -28 0 -16 -22 -40 -24 -32 -3 4 10
-1 15 -14 15 -11 0 -19 -5 -17 -12 1 -6 -7 -14 -17 -16 -14 -3 -17 0 -13 12 5
11 1 16 -13 16 -11 0 -19 -5 -18 -12 2 -6 -6 -14 -16 -16 -14 -3 -17 0 -13 12
5 11 1 16 -13 16 -11 0 -19 -5 -18 -12 2 -6 -6 -14 -16 -16 -14 -3 -17 0 -13
12 5 11 1 16 -13 16 -11 0 -19 -6 -17 -12 3 -19 -39 -21 -57 -3 -9 9 -16 24
-16 33 0 16 28 17 330 17 302 0 330 -1 330 -17z"/>
<path d="M187 773 c-10 -9 -9 -73 1 -73 4 0 24 18 45 40 l37 40 -38 0 c-21 0
-42 -3 -45 -7z"/>
<path d="M512 666 c-5 -6 -22 -42 -39 -81 -18 -38 -44 -96 -58 -128 -29 -65
-28 -85 4 -82 25 2 39 21 69 91 12 28 35 81 52 118 17 37 30 72 28 78 -5 15
-46 18 -56 4z"/>
</g>
</svg>
